<?xml version="1.0" standalone="no"?>
<!DOCTYPE svg PUBLIC "-//W3C//DTD SVG 20010904//EN" "http://www.w3.org/TR/2001/REC-SVG-20010904/DTD/svg10.dtd">
<svg version="1.0" xmlns="http://www.w3.org/2000/svg"
    width="1024.000000pt" height="1024.000000pt" viewBox="0 0 1024.000000 1024.000000"
    preserveAspectRatio="xMidYMid meet">

    <g transform="translate(0.000000,1024.000000) scale(0.100000,-0.100000)"
        fill="#000000" stroke="none">
        <path
            d="M5141 6931 c54 -8 77 -24 95 -66 12 -27 13 -28 14 -7 0 13 -13 37
-29 53 -25 25 -37 29 -78 28 l-48 -2 46 -6z" />
        <path
            d="M4634 6914 c-18 -9 -43 -27 -55 -42 l-24 -26 33 27 c43 34 75 42 111
27 51 -21 65 -46 72 -124 l6 -71 1 68 c2 88 -22 141 -69 151 -41 8 -39 8 -75
-10z" />
        <path
            d="M5595 6920 c-16 -7 -11 -9 22 -9 23 -1 50 -4 60 -7 12 -5 15 -4 8 3
-15 16 -67 23 -90 13z" />
        <path d="M5718 6879 c7 -9 16 -36 21 -60 l9 -44 1 37 c1 26 -6 44 -21 60 -13
13 -17 17 -10 7z" />
        <path d="M4543 6825 c-3 -9 -3 -18 -1 -21 3 -3 8 4 11 16 6 23 -1 27 -10 5z" />
        <path
            d="M5512 6509 c-2 -159 -6 -226 -16 -250 l-14 -33 -81 -1 c-58 0 -81 3
-81 12 0 7 -7 10 -15 7 -11 -5 -13 -2 -9 10 3 8 -2 30 -12 48 -11 21 -20 66
-24 123 -6 80 -7 73 -8 -68 -2 -184 -12 -220 -66 -242 -45 -19 -74 -19 -111 1
-19 10 -31 11 -33 5 -2 -6 -8 -8 -13 -5 -6 3 -6 11 -2 17 4 7 6 138 3 292 l-6
280 -3 -260 c-1 -143 -5 -254 -8 -247 -2 6 -16 12 -29 12 -14 0 -27 7 -30 15
-4 9 -17 14 -33 13 -15 -1 -32 1 -38 5 -7 4 -16 0 -22 -10 -10 -17 -10 -17
-11 1 0 20 0 20 -15 0 -14 -19 -14 -19 -15 1 0 17 -2 17 -10 5 -8 -12 -10 -9
-10 12 0 15 -5 39 -11 55 -6 15 -11 64 -11 108 0 54 -3 72 -8 55 -13 -40 -12
-552 1 -612 42 -196 190 -309 383 -295 175 12 294 89 349 224 27 67 27 72 26
263 -1 107 -5 303 -8 435 l-7 240 -2 -216z" />
        <path d="M5741 6704 c0 -11 3 -14 6 -6 3 7 2 16 -1 19 -3 4 -6 -2 -5 -13z" />
        <path
            d="M3890 6389 c0 -6 -13 -39 -29 -73 -16 -33 -39 -88 -51 -121 -12 -33
-32 -88 -46 -123 -13 -34 -24 -69 -24 -76 0 -8 46 -54 102 -102 57 -49 346
-331 643 -627 l540 -539 7 309 c4 169 6 312 5 317 -2 5 -34 17 -73 26 -113 29
-163 57 -244 139 -135 136 -187 280 -177 496 3 66 1 129 -3 140 -6 14 -9 5 -9
-33 -1 -29 -5 -51 -10 -48 -5 3 -7 14 -4 24 2 10 -3 24 -11 31 -9 8 -16 20
-16 27 0 8 -6 13 -12 12 -7 -2 -13 6 -13 17 0 17 -10 22 -60 29 -33 5 -62 13
-65 17 -3 3 -18 7 -35 7 -16 0 -41 2 -55 4 -21 2 -26 -2 -28 -25 -3 -21 -8
-27 -19 -23 -8 3 -17 6 -19 6 -3 0 -2 4 1 10 3 6 -1 7 -9 4 -9 -3 -16 -14 -16
-23 -1 -11 -4 -9 -14 8 -11 19 -14 21 -19 7 -9 -24 -25 -20 -60 16 -26 27 -42
34 -87 38 -47 4 -55 8 -60 29 l-5 23 -14 -25 c-8 -15 -18 -24 -23 -21 -5 3 -4
12 3 20 8 10 8 14 0 14 -14 0 -14 27 0 32 11 4 24 68 14 68 -3 0 -5 -5 -5 -11z
m115 -149 c3 -5 4 -14 1 -19 -9 -13 -46 -1 -46 15 0 16 36 19 45 4z" />
        <path
            d="M5740 6069 c0 -224 -12 -293 -66 -406 -26 -54 -56 -96 -108 -149 -91
-92 -136 -115 -298 -149 l-28 -5 0 -310 c0 -171 2 -310 5 -310 3 0 213 208
468 463 254 254 544 541 644 636 170 164 181 175 168 195 -7 12 -28 65 -45
120 -20 60 -35 94 -40 86 -6 -9 -10 -8 -19 6 -6 11 -10 15 -11 9 0 -19 18 -38
29 -31 7 4 9 1 5 -8 -5 -12 -9 -13 -25 -3 -10 6 -19 15 -19 19 0 5 -10 8 -22
8 -19 0 -20 2 -8 10 24 15 -5 12 -47 -5 -19 -8 -51 -15 -69 -15 -19 0 -34 -4
-34 -10 0 -5 -8 -10 -17 -10 -10 0 -29 -12 -42 -25 -13 -14 -26 -23 -29 -20
-3 3 -16 -4 -28 -16 l-23 -22 5 29 c3 18 1 24 -4 16 -6 -9 -15 -10 -35 -3 -21
8 -25 7 -20 -4 3 -8 -2 -18 -11 -21 -9 -3 -16 -12 -16 -20 0 -16 -21 -19 -36
-4 -5 5 -15 6 -23 0 -12 -7 -12 -11 -2 -24 12 -14 11 -16 -7 -16 -11 0 -22 -7
-26 -15 -3 -8 -17 -15 -31 -15 -14 0 -25 -4 -25 -10 0 -5 5 -10 10 -10 6 0 10
-4 10 -10 0 -5 -9 -10 -19 -10 -11 0 -26 -6 -33 -13 -7 -8 -23 -19 -35 -25
-28 -15 -29 -8 -32 153 -1 71 -4 132 -7 134 -2 2 -4 -83 -4 -190z m690 106 c0
-8 -6 -12 -14 -9 -8 3 -12 12 -9 20 6 17 23 9 23 -11z" />
        <path
            d="M6390 5607 c-664 -654 -968 -946 -1103 -1060 l-58 -49 1 -256 c1
-142 1 -265 0 -274 0 -15 -9 -18 -46 -18 -60 0 -121 18 -130 39 -4 9 -9 120
-11 246 -2 127 -6 239 -8 251 -3 11 -35 44 -72 72 -86 65 -313 276 -589 547
-118 116 -221 209 -229 209 -8 -1 -13 2 -12 5 2 8 -366 398 -412 437 l-29 24
-5 -28 c-3 -16 -9 -96 -12 -178 -12 -255 33 -476 140 -699 70 -146 156 -264
293 -407 210 -217 340 -286 780 -419 57 -17 69 -24 58 -33 -11 -9 -15 -125
-22 -681 -12 -935 -15 -843 21 -900 17 -26 47 -62 68 -79 34 -27 48 -31 111
-34 71 -4 73 -4 119 35 25 21 57 60 71 87 25 48 26 56 26 232 0 101 -4 306
-10 456 -7 197 -6 364 3 598 l12 325 106 26 c277 68 465 159 606 290 28 27 56
49 60 49 5 0 17 14 26 30 10 17 26 30 36 30 11 0 25 15 36 41 10 22 31 49 47
60 16 12 35 37 43 57 9 19 24 41 34 49 49 34 134 194 201 378 26 69 57 228 71
360 12 114 7 361 -8 376 -5 5 -101 -83 -213 -194z m-1840 -712 c22 14 8 -15
-17 -35 l-28 -22 -3 32 c-2 17 2 38 9 47 11 13 14 12 21 -7 4 -12 12 -18 18
-15z" />
    </g>
</svg>